<svg width="48" height="48" viewBox="0 0 48 48" fill="none" xmlns="http://www.w3.org/2000/svg">
<path d="M0 12C0 5.37258 5.37258 0 12 0H36C42.6274 0 48 5.37258 48 12V36C48 42.6274 42.6274 48 36 48H12C5.37258 48 0 42.6274 0 36V12Z" fill="#FEF0C7"/>
<path d="M29.3346 36V33.3333C29.3346 31.9188 28.7727 30.5623 27.7725 29.5621C26.7723 28.5619 25.4158 28 24.0013 28H16.0013C14.5868 28 13.2303 28.5619 12.2301 29.5621C11.2299 30.5623 10.668 31.9188 10.668 33.3333V36M37.3346 36V33.3333C37.3338 32.1516 36.9404 31.0037 36.2165 30.0698C35.4925 29.1358 34.4788 28.4688 33.3346 28.1733M29.3346 12.1733C30.4819 12.4671 31.4987 13.1343 32.2248 14.0697C32.951 15.0052 33.3451 16.1558 33.3451 17.34C33.3451 18.5242 32.951 19.6748 32.2248 20.6103C31.4987 21.5457 30.4819 22.2129 29.3346 22.5067M25.3346 17.3333C25.3346 20.2789 22.9468 22.6667 20.0013 22.6667C17.0558 22.6667 14.668 20.2789 14.668 17.3333C14.668 14.3878 17.0558 12 20.0013 12C22.9468 12 25.3346 14.3878 25.3346 17.3333Z" stroke="#141414" stroke-width="2" stroke-linecap="round" stroke-linejoin="round"/>
</svg>
