<svg width="48" height="48" viewBox="0 0 48 48" fill="none" xmlns="http://www.w3.org/2000/svg">
<path d="M0 12C0 5.37258 5.37258 0 12 0H36C42.6274 0 48 5.37258 48 12V36C48 42.6274 42.6274 48 36 48H12C5.37258 48 0 42.6274 0 36V12Z" fill="#D1E0FF"/>
<path d="M13.9987 30C11.9987 31.68 11.332 36.6666 11.332 36.6666C11.332 36.6666 16.3187 36 17.9987 34C18.9454 32.88 18.932 31.16 17.8787 30.12C17.3604 29.6253 16.6778 29.3395 15.9617 29.3174C15.2456 29.2952 14.5465 29.5383 13.9987 30ZM23.9987 28L19.9987 24C20.7082 22.1592 21.6016 20.3947 22.6654 18.7333C24.2189 16.2493 26.3822 14.204 28.9494 12.7921C31.5165 11.3802 34.4023 10.6485 37.332 10.6667C37.332 14.2933 36.292 20.6667 29.332 25.3333C27.6477 26.3979 25.861 27.2912 23.9987 28Z" stroke="#141414" stroke-width="2" stroke-linecap="round" stroke-linejoin="round"/>
<path d="M19.9987 24H13.332C13.332 24 14.0654 19.96 15.9987 18.6667C18.1587 17.2267 22.6654 18.6667 22.6654 18.6667M23.9987 28V34.6667C23.9987 34.6667 28.0387 33.9333 29.332 32C30.772 29.84 29.332 25.3333 29.332 25.3333" stroke="#141414" stroke-width="2" stroke-linecap="round" stroke-linejoin="round"/>
</svg>
