<svg width="104" height="104" viewBox="0 0 104 104" fill="none" xmlns="http://www.w3.org/2000/svg">
<path d="M0.25 20C0.25 9.09238 9.09238 0.25 20 0.25H84C94.9076 0.25 103.75 9.09238 103.75 20V83.4483C103.75 94.3559 94.9076 103.198 84 103.198H20C9.09238 103.198 0.25 94.3559 0.25 83.4483V20Z" fill="white"/>
<path d="M0.25 20C0.25 9.09238 9.09238 0.25 20 0.25H84C94.9076 0.25 103.75 9.09238 103.75 20V83.4483C103.75 94.3559 94.9076 103.198 84 103.198H20C9.09238 103.198 0.25 94.3559 0.25 83.4483V20Z" stroke="#D6D6D6" stroke-width="0.5"/>
<path d="M8 20C8 13.3726 13.3726 8 20 8H84C90.6274 8 96 13.3726 96 20V83.4483C96 90.0757 90.6274 95.4483 84 95.4483H20C13.3726 95.4483 8 90.0757 8 83.4483V20Z" fill="#F5F5F5"/>
<g clip-path="url(#clip0_2210_24946)">
<path d="M50.2223 38.1801H28V75.4483H50.2223V38.1801Z" fill="#737373"/>
<path d="M39.1094 28H57.5535C59.9758 27.9997 62.3745 28.4746 64.6125 29.3975C66.8505 30.3205 68.8841 31.6734 70.597 33.3791C72.31 35.0848 73.6688 37.1099 74.5958 39.3386C75.5229 41.5673 76 43.956 76 46.3684C76 48.7808 75.5229 51.1695 74.5958 53.3982C73.6688 55.627 72.31 57.652 70.597 59.3577C68.8841 61.0634 66.8505 62.4163 64.6125 63.3393C62.3745 64.2623 59.9758 64.7371 57.5535 64.7368H39.1094V28Z" fill="#141414"/>
<path d="M39.1094 64.7368L50.2211 75.4483V64.7368H39.1094Z" fill="#424242"/>
</g>
<defs>
<clipPath id="clip0_2210_24946">
<rect width="48" height="47.4483" fill="white" transform="translate(28 28)"/>
</clipPath>
</defs>
</svg>
