<svg width="48" height="48" viewBox="0 0 48 48" fill="none" xmlns="http://www.w3.org/2000/svg">
<path d="M0 12C0 5.37258 5.37258 0 12 0H36C42.6274 0 48 5.37258 48 12V36C48 42.6274 42.6274 48 36 48H12C5.37258 48 0 42.6274 0 36V12Z" fill="#FEE4E2"/>
<path d="M34.896 17H32.4147L26.3267 23.0853C26.5364 23.6197 26.5556 24.21 26.3813 24.757C26.2069 25.3039 25.8495 25.7741 25.3693 26.0885C24.889 26.403 24.3151 26.5424 23.7441 26.4835C23.1731 26.4245 22.6397 26.1708 22.2338 25.7648C21.8279 25.3589 21.5741 24.8256 21.5152 24.2546C21.4562 23.6836 21.5957 23.1097 21.9101 22.6294C22.2246 22.1491 22.6948 21.7918 23.2417 21.6174C23.7887 21.443 24.3789 21.4623 24.9133 21.672L31 15.5853V13.104C31.0001 12.772 31.132 12.4536 31.3667 12.2187L33.6733 9.91201C33.716 9.86904 33.7696 9.83852 33.8283 9.82372C33.8871 9.80892 33.9487 9.81041 34.0067 9.82801C34.1253 9.86267 34.2133 9.96134 34.2373 10.0827L34.8507 13.1507L37.9173 13.764C38.0373 13.788 38.136 13.876 38.1707 13.9947C38.1882 14.0523 38.1897 14.1136 38.1752 14.1721C38.1606 14.2305 38.1305 14.284 38.088 14.3267L35.78 16.6333C35.5454 16.8677 35.2276 16.9995 34.896 17Z" fill="#141414"/>
<path d="M11.5 24C11.5 27.3152 12.817 30.4946 15.1612 32.8388C17.5054 35.183 20.6848 36.5 24 36.5C25.6415 36.5 27.267 36.1767 28.7835 35.5485C30.3001 34.9203 31.6781 33.9996 32.8388 32.8388C33.9996 31.6781 34.9203 30.3001 35.5485 28.7836C36.1767 27.267 36.5 25.6415 36.5 24C36.5 22.8027 36.332 21.6453 36.0187 20.5507C35.9564 20.2993 35.994 20.0336 36.1237 19.8095C36.2533 19.5853 36.4649 19.4202 36.7138 19.3489C36.9627 19.2775 37.2296 19.3055 37.4583 19.427C37.687 19.5484 37.8597 19.7538 37.94 20C38.3053 21.272 38.5 22.6133 38.5 24C38.5 32.008 32.008 38.5 24 38.5C15.992 38.5 9.5 32.008 9.5 24C9.5 15.992 15.992 9.50001 24 9.50001C25.3533 9.49867 26.6987 9.68667 28 10.0587C28.1269 10.0943 28.2455 10.1546 28.349 10.2362C28.4525 10.3177 28.5388 10.419 28.6031 10.534C28.6673 10.6491 28.7082 10.7757 28.7233 10.9066C28.7384 11.0375 28.7275 11.1702 28.6913 11.2968C28.655 11.4235 28.594 11.5418 28.5119 11.6448C28.4297 11.7479 28.328 11.8337 28.2126 11.8973C28.0972 11.9609 27.9703 12.0011 27.8394 12.0155C27.7084 12.0299 27.5758 12.0183 27.4493 11.9813C26.3276 11.6611 25.1666 11.4991 24 11.5C20.6848 11.5 17.5054 12.817 15.1612 15.1612C12.817 17.5054 11.5 20.6848 11.5 24Z" fill="#141414"/>
<path d="M17.5 24C17.5037 24.8831 17.6874 25.7562 18.0398 26.5659C18.3922 27.3757 18.9059 28.1051 19.5497 28.7097C20.1934 29.3142 20.9536 29.7813 21.7838 30.0822C22.614 30.3832 23.4969 30.5118 24.3785 30.4602C25.2601 30.4086 26.1219 30.1778 26.9114 29.782C27.7008 29.3862 28.4013 28.8336 28.97 28.158C29.5388 27.4825 29.9639 26.6981 30.2194 25.8527C30.4749 25.0074 30.5554 24.1188 30.456 23.2413C30.428 23.0636 30.4486 22.8816 30.5156 22.7147C30.5826 22.5477 30.6935 22.402 30.8366 22.2929C30.9797 22.1839 31.1496 22.1155 31.3284 22.0952C31.5071 22.0749 31.6881 22.1032 31.852 22.1773C32.1867 22.3267 32.412 22.6453 32.4413 23.0107C32.6484 24.7643 32.3039 26.5389 31.4558 28.0878C30.6078 29.6367 29.2983 30.8829 27.7093 31.6531C26.1203 32.4234 24.3308 32.6796 22.5896 32.3859C20.8483 32.0923 19.2418 31.2635 17.9933 30.0147C16.7452 28.7672 15.9162 27.1623 15.6212 25.4225C15.3263 23.6827 15.5801 21.8942 16.3474 20.3051C17.1147 18.716 18.3574 17.4051 19.9033 16.5541C21.4492 15.7031 23.2216 15.3543 24.9747 15.556C25.1072 15.5683 25.2359 15.6069 25.3533 15.6696C25.4707 15.7323 25.5744 15.8178 25.6584 15.9211C25.7423 16.0244 25.8048 16.1434 25.8421 16.2712C25.8795 16.3989 25.8909 16.5329 25.8758 16.6651C25.8607 16.7973 25.8194 16.9252 25.7543 17.0413C25.6891 17.1573 25.6014 17.2592 25.4964 17.341C25.3913 17.4227 25.271 17.4826 25.1425 17.5173C25.014 17.5519 24.8799 17.5605 24.748 17.5427C23.8374 17.4374 22.9148 17.5259 22.0408 17.8023C21.1667 18.0788 20.3611 18.5369 19.6766 19.1467C18.9921 19.7565 18.4444 20.5041 18.0693 21.3406C17.6941 22.177 17.5001 23.0833 17.5 24Z" fill="#141414"/>
</svg>
