<svg width="48" height="48" viewBox="0 0 48 48" fill="none" xmlns="http://www.w3.org/2000/svg">
<path d="M0 12C0 5.37258 5.37258 0 12 0H36C42.6274 0 48 5.37258 48 12V36C48 42.6274 42.6274 48 36 48H12C5.37258 48 0 42.6274 0 36V12Z" fill="#D1FADF"/>
<path d="M21.3346 22L18.668 25.3333L21.3346 28.6667M26.668 22L29.3346 25.3333L26.668 28.6667M34.668 34.6667C35.3752 34.6667 36.0535 34.3857 36.5536 33.8856C37.0537 33.3855 37.3346 32.7072 37.3346 32V18.6667C37.3346 17.9594 37.0537 17.2811 36.5536 16.781C36.0535 16.281 35.3752 16 34.668 16H24.1346C23.6887 16.0044 23.2487 15.8968 22.855 15.6872C22.4614 15.4775 22.1266 15.1725 21.8813 14.8L20.8013 13.2C20.5585 12.8313 20.2279 12.5286 19.8393 12.3192C19.4507 12.1098 19.0161 12.0001 18.5746 12H13.3346C12.6274 12 11.9491 12.281 11.449 12.781C10.9489 13.2811 10.668 13.9594 10.668 14.6667V32C10.668 32.7072 10.9489 33.3855 11.449 33.8856C11.9491 34.3857 12.6274 34.6667 13.3346 34.6667H34.668Z" stroke="#141414" stroke-width="2" stroke-linecap="round" stroke-linejoin="round"/>
</svg>
