<svg width="140" height="32" viewBox="0 0 140 32" fill="none" xmlns="http://www.w3.org/2000/svg">
<path d="M53.8812 8.64348C52.5416 7.80598 50.9815 7.37002 49.3924 7.38917C48.1003 7.36852 46.8243 7.6714 45.6851 8.2691C44.9616 8.65196 44.3143 9.15922 43.7742 9.76663V7.76356H39.5703V31.5H43.7742V23.7643C44.3032 24.3587 44.9374 24.8547 45.6462 25.2285C46.7984 25.8287 48.0877 26.1316 49.3924 26.1084C50.9786 26.1266 52.5367 25.6978 53.8812 24.8732C55.2161 24.0509 56.3074 22.8997 57.0457 21.5347C57.8355 20.0776 58.2366 18.4485 58.2117 16.7989C58.2389 15.1383 57.8378 13.4979 57.0457 12.0296C56.3081 10.6514 55.2177 9.48455 53.8812 8.64348ZM53.2312 19.5936C52.8129 20.3895 52.1786 21.057 51.3982 21.5228C50.5831 21.9942 49.6499 22.2336 48.7036 22.2143C47.7511 22.2327 46.812 21.9934 45.9894 21.5228C45.2028 21.0645 44.5667 20.395 44.1564 19.5936C43.7079 18.7109 43.4848 17.7346 43.5065 16.7488C43.4848 15.7629 43.7079 14.7867 44.1564 13.9039C44.5667 13.1026 45.2028 12.4331 45.9894 11.9748C46.8125 11.5053 47.7513 11.2661 48.7036 11.2833C49.6498 11.2649 50.5827 11.5043 51.3982 11.9748C52.1786 12.4406 52.8129 13.1081 53.2312 13.9039C53.6907 14.7835 53.9207 15.7609 53.9006 16.7488C53.9207 17.7367 53.6907 18.7141 53.2312 19.5936Z" fill="#141414"/>
<path d="M74.2615 8.28815C73.1414 7.67573 71.8755 7.3655 70.5931 7.38915C69.3141 7.37002 68.0532 7.68704 66.9417 8.30723C66.2515 8.69631 65.6368 9.20165 65.1258 9.8V0.5H60.9219V25.734H65.1258V15.3633C65.1122 14.6184 65.2968 13.8829 65.6613 13.2291C66.0087 12.6156 66.5249 12.11 67.1511 11.7697C67.8185 11.4126 68.5693 11.2318 69.3297 11.2451C69.8847 11.2254 70.4379 11.3184 70.9544 11.5183C71.4709 11.7181 71.9396 12.0205 72.3311 12.4064C72.7183 12.7973 73.021 13.2605 73.2214 13.7686C73.4217 14.2766 73.5155 14.819 73.4971 15.3633V25.734H77.701V14.4643C77.7287 13.178 77.4123 11.9071 76.7833 10.7777C76.192 9.73672 75.3195 8.87539 74.2615 8.28815Z" fill="#141414"/>
<path d="M94.6081 9.76417C94.0735 9.15954 93.433 8.65323 92.7167 8.26901C91.5721 7.66744 90.2887 7.36442 88.9899 7.38909C87.4009 7.36994 85.8408 7.80589 84.5012 8.6434C83.1676 9.48068 82.0776 10.6414 81.3367 12.0129C80.5464 13.4817 80.1462 15.1219 80.1731 16.7821C80.1486 18.4314 80.5488 20.0602 81.3367 21.5179C82.0759 22.8824 83.1669 24.0334 84.5012 24.8564C85.8457 25.681 87.4038 26.1098 88.9899 26.0916C90.2965 26.1215 91.5893 25.8244 92.746 25.2284C93.4538 24.8532 94.0877 24.3574 94.6179 23.7642V25.7339H98.8218V7.76347H94.6081V9.76417ZM93.4446 20.6809C92.492 21.7047 91.2367 22.2158 89.6788 22.2142C88.7324 22.2342 87.799 21.9947 86.9841 21.5227C86.2037 21.0569 85.5695 20.3894 85.1511 19.5936C84.6908 18.7143 84.4607 17.7367 84.4817 16.7487C84.4607 15.7607 84.6908 14.7831 85.1511 13.9039C85.5695 13.108 86.2037 12.4405 86.9841 11.9747C87.7997 11.5043 88.7326 11.2649 89.6788 11.2832C90.6378 11.2618 91.584 11.5012 92.4125 11.9747C93.19 12.438 93.8186 13.1066 94.226 13.9039C94.6733 14.787 94.8963 15.763 94.8759 16.7487C94.8759 18.3464 94.3988 19.6571 93.4446 20.6809Z" fill="#141414"/>
<path d="M115.907 8.41922C114.816 7.72653 113.539 7.3679 112.239 7.38907C110.96 7.3704 109.699 7.68739 108.588 8.30715C107.898 8.69564 107.284 9.20107 106.774 9.79992V7.77299H102.57V25.7435H106.774V15.3632C106.761 14.6186 106.944 13.8833 107.307 13.229C107.659 12.6139 108.18 12.1081 108.812 11.7696C109.479 11.4119 110.23 11.231 110.99 11.245C111.545 11.2252 112.098 11.3182 112.614 11.5181C113.13 11.7179 113.598 12.0204 113.989 12.4063C114.374 12.7983 114.674 13.2622 114.872 13.7701C115.07 14.2781 115.161 14.8199 115.141 15.3632V25.7339H119.345V14.4642C119.34 13.2763 119.024 12.1095 118.427 11.0757C117.825 9.99944 116.959 9.08662 115.907 8.41922Z" fill="#141414"/>
<path d="M138.87 11.7314C138.15 10.4168 137.081 9.31756 135.776 8.55036C134.404 7.7607 132.836 7.35873 131.246 7.38905C129.584 7.37211 127.948 7.78775 126.505 8.59345C125.061 9.39916 123.862 10.566 123.03 11.9747C122.178 13.4239 121.742 15.0717 121.767 16.7439C121.743 18.4256 122.186 20.0821 123.047 21.537C123.88 22.9386 125.081 24.0956 126.526 24.8874C128.038 25.7099 129.745 26.1292 131.474 26.1035C132.866 26.1104 134.244 25.8428 135.527 25.3166C136.782 24.8067 137.896 24.0114 138.775 22.9964L136.097 20.3375C135.539 20.9643 134.838 21.4543 134.052 21.7683C133.221 22.0946 132.331 22.2567 131.435 22.2452C130.421 22.2675 129.419 22.0308 128.527 21.5584C127.694 21.1056 127.017 20.4221 126.579 19.5935C126.361 19.1789 126.198 18.739 126.092 18.2844H139.775C139.853 17.91 139.909 17.569 139.948 17.2542C139.986 16.9496 140.006 16.643 140.006 16.3361C140.033 14.7315 139.642 13.1467 138.87 11.7314ZM126.545 13.7345C126.958 12.9443 127.596 12.2877 128.38 11.8435C129.232 11.3794 130.196 11.1472 131.17 11.171C132.068 11.1427 132.958 11.3493 133.748 11.7696C134.453 12.1719 135.019 12.7715 135.374 13.4913C135.6 13.945 135.764 14.4261 135.861 14.922H126.092C126.194 14.5099 126.346 14.1112 126.545 13.7345Z" fill="#141414"/>
<path d="M14.7587 7.15063H0V31.4999H14.7587V7.15063Z" fill="#737373"/>
<path d="M19.628 24.5012H7.37891V0.500002H19.628C21.2375 0.499062 22.8314 0.808804 24.3186 1.41153C25.8059 2.01425 27.1574 2.89815 28.2958 4.01271C29.4342 5.12727 30.3373 6.45065 30.9535 7.90724C31.5696 9.36383 31.8868 10.9251 31.8868 12.5018C31.8868 14.0784 31.5696 15.6395 30.9534 17.0959C30.3372 18.5524 29.4341 19.8756 28.2956 20.99C27.1572 22.1044 25.8057 22.988 24.3185 23.5905C22.8312 24.193 21.2374 24.5024 19.628 24.5012Z" fill="#141414"/>
<path d="M7.37891 24.5012L14.7571 31.5001V24.5012H7.37891Z" fill="#424242"/>
</svg>
