<svg width="128" height="124" viewBox="0 0 128 124" fill="none" xmlns="http://www.w3.org/2000/svg">
<path d="M32.9683 36.6645L45.6315 70.2216L45.6714 70.3273L45.7771 70.3672L79.3342 83.0304L56.6045 110.776L56.5329 110.863L56.5512 110.975L62.3631 146.367L26.9702 140.556L26.8587 140.537L26.7713 140.609L-0.973934 163.339L-13.6371 129.781L-13.677 129.676L-13.7828 129.636L-47.3399 116.973L-24.6101 89.2274L-24.5385 89.14L-24.5568 89.0285L-30.3688 53.6356L5.02415 59.4475L5.13567 59.4658L5.22309 59.3942L32.9683 36.6645Z" fill="white" stroke="#E5E5E5" stroke-width="0.5"/>
<path d="M31.1599 43.4263L42.467 73.3898L42.5069 73.4955L42.6126 73.5354L72.5761 84.8425L52.2805 109.616L52.2089 109.704L52.2272 109.815L57.4167 141.418L25.8141 136.229L25.7025 136.21L25.6151 136.282L0.841178 156.577L-10.4659 126.614L-10.5058 126.508L-10.6115 126.468L-40.575 115.161L-20.2794 90.3873L-20.2078 90.2999L-20.2261 90.1884L-25.4156 58.5857L6.18703 63.7752L6.29856 63.7935L6.38598 63.7219L31.1599 43.4263Z" fill="#EFF4FF" stroke="#E5E5E5" stroke-width="0.5"/>
<path d="M40.3346 90L35.0013 82H19.0013L13.668 90M40.3346 90L27.0013 107.333M40.3346 90H13.668M27.0013 107.333L13.668 90M27.0013 107.333L21.668 90L25.668 82M27.0013 107.333L32.3346 90L28.3346 82" stroke="#004EEA" stroke-width="2" stroke-linecap="round" stroke-linejoin="round"/>
</svg>
