<svg width="94" height="97" viewBox="0 0 94 97" fill="none" xmlns="http://www.w3.org/2000/svg">
<path d="M55.6694 20.5976C59.9962 12.1993 72.0038 12.1993 76.3306 20.5976C79.0424 25.8611 85.1601 28.3952 90.7995 26.5908C99.7975 23.7118 108.288 32.2025 105.409 41.2005C103.605 46.8399 106.139 52.9576 111.402 55.6694C119.801 59.9962 119.801 72.0038 111.402 76.3306C106.139 79.0424 103.605 85.1601 105.409 90.7995C108.288 99.7975 99.7975 108.288 90.7995 105.409C85.1601 103.605 79.0424 106.139 76.3306 111.402C72.0038 119.801 59.9962 119.801 55.6694 111.402C52.9576 106.139 46.8399 103.605 41.2005 105.409C32.2025 108.288 23.7118 99.7975 26.5908 90.7995C28.3952 85.1601 25.8611 79.0424 20.5976 76.3306C12.1993 72.0038 12.1993 59.9962 20.5976 55.6694C25.8611 52.9576 28.3952 46.8399 26.5908 41.2005C23.7118 32.2025 32.2025 23.7118 41.2005 26.5908C46.8399 28.3952 52.9576 25.8611 55.6694 20.5976Z" fill="white" stroke="#E5E5E5" stroke-width="0.5"/>
<path d="M56.7886 25.4251C60.6466 17.9367 71.3534 17.9367 75.2114 25.4251C77.6415 30.1419 83.1237 32.4128 88.1773 30.7958C96.2005 28.2287 103.771 35.7995 101.204 43.8227C99.5873 48.8763 101.858 54.3585 106.575 56.7886C114.063 60.6466 114.063 71.3534 106.575 75.2114C101.858 77.6415 99.5873 83.1237 101.204 88.1773C103.771 96.2005 96.2005 103.771 88.1773 101.204C83.1237 99.5873 77.6415 101.858 75.2114 106.575C71.3534 114.063 60.6466 114.063 56.7886 106.575C54.3585 101.858 48.8763 99.5873 43.8227 101.204C35.7995 103.771 28.2287 96.2005 30.7958 88.1773C32.4128 83.1237 30.1419 77.6415 25.4251 75.2114C17.9367 71.3534 17.9367 60.6466 25.4251 56.7886C30.1419 54.3585 32.4128 48.8763 30.7958 43.8227C28.2287 35.7995 35.7995 28.2287 43.8227 30.7958C48.8763 32.4128 54.3585 30.1419 56.7886 25.4251Z" fill="#FFFAEB" stroke="#E5E5E5" stroke-width="0.5"/>
<path d="M52.5746 54.5733L58.228 60.2266M65.7746 60.2266L71.428 54.5733M65.7746 67.7733L71.428 73.4266M58.228 67.7733L52.5746 73.4266M75.3346 64C75.3346 71.3638 69.3651 77.3333 62.0013 77.3333C54.6375 77.3333 48.668 71.3638 48.668 64C48.668 56.6362 54.6375 50.6666 62.0013 50.6666C69.3651 50.6666 75.3346 56.6362 75.3346 64ZM67.3346 64C67.3346 66.9455 64.9468 69.3333 62.0013 69.3333C59.0558 69.3333 56.668 66.9455 56.668 64C56.668 61.0544 59.0558 58.6666 62.0013 58.6666C64.9468 58.6666 67.3346 61.0544 67.3346 64Z" stroke="#B54707" stroke-width="2" stroke-linecap="round" stroke-linejoin="round"/>
</svg>
