<svg width="89" height="84" viewBox="0 0 89 84" fill="none" xmlns="http://www.w3.org/2000/svg">
<circle cx="66" cy="18" r="65.75" fill="white" stroke="#E5E5E5" stroke-width="0.5"/>
<circle cx="66" cy="18" r="58.75" fill="#ECFDF3" stroke="#E5E5E5" stroke-width="0.5"/>
<path d="M49.9987 35L52.6654 37.6667L57.9987 32.3333M64.6654 36.3333C64.6654 43 59.9987 46.3333 54.452 48.2667C54.1616 48.3651 53.8461 48.3604 53.5587 48.2533C47.9987 46.3333 43.332 43 43.332 36.3333V27C43.332 26.6464 43.4725 26.3072 43.7226 26.0572C43.9726 25.8072 44.3117 25.6667 44.6654 25.6667C47.332 25.6667 50.6654 24.0667 52.9854 22.04C53.2678 21.7987 53.6272 21.6661 53.9987 21.6661C54.3702 21.6661 54.7296 21.7987 55.012 22.04C57.3454 24.08 60.6654 25.6667 63.332 25.6667C63.6857 25.6667 64.0248 25.8072 64.2748 26.0572C64.5249 26.3072 64.6654 26.6464 64.6654 27V36.3333Z" stroke="#027A48" stroke-width="2" stroke-linecap="round" stroke-linejoin="round"/>
</svg>
