<svg width="122" height="111" viewBox="0 0 122 111" fill="none" xmlns="http://www.w3.org/2000/svg">
<path d="M-25.8501 52.8232L-1.8218 -36.8515L87.8529 -12.8233L63.8247 76.8515L-25.8501 52.8232Z" fill="white" stroke="#E5E5E5" stroke-width="0.5"/>
<path d="M-19.7876 49.3232L1.67852 -30.7893L81.7911 -9.32325L60.325 70.7893L-19.7876 49.3232Z" fill="#FEF3F2" stroke="#E5E5E5" stroke-width="0.5"/>
<path d="M48.3333 24.56L37 30.8563M37 30.8563L25.6666 24.56M37 30.8563L37 43.523M39.6667 42.7082L38.036 43.6141C37.6579 43.8242 37.4688 43.9292 37.2686 43.9704C37.0914 44.0069 36.9086 44.0069 36.7314 43.9704C36.5312 43.9292 36.3421 43.8242 35.964 43.6141L26.0973 38.1326C25.6979 37.9108 25.4982 37.7998 25.3528 37.642C25.2242 37.5025 25.1269 37.337 25.0673 37.1568C25 36.953 25 36.7246 25 36.2678V25.445C25 24.9881 25 24.7597 25.0673 24.5559C25.1269 24.3757 25.2242 24.2103 25.3528 24.0707C25.4982 23.9129 25.6979 23.802 26.0973 23.5801L35.964 18.0986C36.3421 17.8885 36.5312 17.7835 36.7314 17.7423C36.9086 17.7059 37.0914 17.7059 37.2686 17.7423C37.4688 17.7835 37.6579 17.8885 38.036 18.0986L47.9027 23.5801C48.3021 23.8019 48.5018 23.9129 48.6472 24.0707C48.7758 24.2103 48.8731 24.3757 48.9327 24.5559C49 24.7597 49 24.9881 49 25.4449L49 31.523M31 20.8564L43 27.523M42.3333 38.8564L45 41.523L50.3333 36.1897" stroke="#B42318" stroke-width="2" stroke-linecap="round" stroke-linejoin="round"/>
</svg>
