<svg width="36" height="36" viewBox="0 0 36 36" fill="none" xmlns="http://www.w3.org/2000/svg">
<rect width="36" height="36" rx="8" fill="#F5F5F5"/>
<path d="M10.8889 13C10.398 13 10 13.3731 10 13.8333C10 14.2936 10.398 14.6667 10.8889 14.6667H25.1111C25.602 14.6667 26 14.2936 26 13.8333C26 13.3731 25.602 13 25.1111 13H10.8889Z" fill="#101828"/>
<path d="M10.8889 21.3333C10.398 21.3333 10 21.7064 10 22.1667C10 22.6269 10.398 23 10.8889 23H25.1111C25.602 23 26 22.6269 26 22.1667C26 21.7064 25.602 21.3333 25.1111 21.3333H10.8889Z" fill="#101828"/>
</svg>
